<svg width="210" height="80" viewBox="0 0 210 80" fill="none" xmlns="http://www.w3.org/2000/svg">
<path d="M172.11 48.3006C171.017 48.3006 169.993 48.0903 169.038 47.6697C168.083 47.2492 167.246 46.6661 166.525 45.9206C165.804 45.1687 165.239 44.2989 164.828 43.3112C164.423 42.3172 164.221 41.253 164.221 40.1188C164.221 38.9845 164.423 37.9236 164.828 36.9359C165.239 35.9418 165.804 35.072 166.525 34.3265C167.246 33.5746 168.083 32.9884 169.038 32.5678C169.993 32.1472 171.017 31.937 172.11 31.937C173.204 31.937 174.228 32.1472 175.183 32.5678C176.137 32.9884 176.975 33.5746 177.696 34.3265C178.416 35.072 178.979 35.9418 179.384 36.9359C179.795 37.9236 180 38.9845 180 40.1188C180 41.253 179.795 42.3172 179.384 43.3112C178.979 44.2989 178.416 45.1687 177.696 45.9206C176.975 46.6661 176.137 47.2492 175.183 47.6697C174.228 48.0903 173.204 48.3006 172.11 48.3006ZM172.101 45.3184C172.771 45.3184 173.384 45.191 173.941 44.9361C174.497 44.6812 174.98 44.3212 175.391 43.856C175.802 43.3909 176.122 42.8429 176.349 42.212C176.577 41.5748 176.691 40.8771 176.691 40.1188C176.691 39.3605 176.577 38.6659 176.349 38.0351C176.122 37.3979 175.802 36.8467 175.391 36.3815C174.98 35.9163 174.497 35.5563 173.941 35.3014C173.384 35.0466 172.771 34.9191 172.101 34.9191C171.443 34.9191 170.833 35.0466 170.271 35.3014C169.714 35.5563 169.231 35.9163 168.82 36.3815C168.409 36.8467 168.09 37.3979 167.862 38.0351C167.641 38.6659 167.53 39.3605 167.53 40.1188C167.53 40.8771 167.641 41.5748 167.862 42.212C168.09 42.8429 168.409 43.3909 168.82 43.856C169.231 44.3212 169.714 44.6812 170.271 44.9361C170.833 45.191 171.443 45.3184 172.101 45.3184Z" fill="#272A33"/>
<path d="M153.223 48.0272V32.248H158.966C159.797 32.248 160.521 32.4208 161.138 32.7664C161.756 33.1121 162.234 33.6005 162.574 34.2317C162.914 34.8628 163.084 35.6067 163.084 36.4633V36.7338C163.084 37.6805 162.895 38.447 162.518 39.0331C162.14 39.6191 161.674 40.0474 161.12 40.3179V40.7237C161.623 40.7537 162.014 40.9641 162.291 41.3548C162.568 41.7305 162.707 42.234 162.707 42.8651V48.0272H160.213V43.2934C160.213 42.9328 160.131 42.6397 159.967 42.4143C159.816 42.1889 159.558 42.0762 159.193 42.0762H155.716V48.0272H153.223ZM155.716 39.3712H158.701C159.293 39.3712 159.753 39.1833 160.081 38.8076C160.421 38.4169 160.591 37.906 160.591 37.2748V37.0494C160.591 36.4182 160.427 35.9148 160.099 35.5391C159.772 35.1484 159.306 34.953 158.701 34.953H155.716V39.3712Z" fill="#272A33"/>
<path d="M141.17 48.0272V32.248H146.717C147.564 32.248 148.309 32.4509 148.951 32.8566C149.606 33.2473 150.113 33.8034 150.473 34.5247C150.845 35.246 151.031 36.1026 151.031 37.0945V37.41C151.031 38.3869 150.839 39.2434 150.453 39.9798C150.081 40.7011 149.567 41.2647 148.912 41.6704C148.27 42.0612 147.539 42.2565 146.717 42.2565H143.712V48.0272H141.17ZM143.712 39.5515H146.466C147.07 39.5515 147.558 39.3561 147.93 38.9654C148.303 38.5747 148.489 38.0412 148.489 37.365V37.1395C148.489 36.4633 148.303 35.9298 147.93 35.5391C147.558 35.1484 147.07 34.953 146.466 34.953H143.712V39.5515Z" fill="#272A33"/>
<path d="M134.232 48.1095C133.189 48.1095 132.268 47.8948 131.469 47.4653C130.67 47.0358 130.046 46.4212 129.595 45.6214C129.144 44.8217 128.919 43.8591 128.919 42.7335V42.1115H131.43V42.7335C131.43 43.6665 131.682 44.37 132.184 44.8439C132.686 45.303 133.369 45.5326 134.232 45.5326C135.108 45.5326 135.758 45.3327 136.183 44.9328C136.621 44.5329 136.84 44.022 136.84 43.3999C136.84 42.9704 136.731 42.6224 136.512 42.3558C136.306 42.0892 135.997 41.8745 135.584 41.7116C135.185 41.5339 134.696 41.371 134.116 41.2229L133.672 41.1118C132.744 40.8748 131.946 40.5786 131.276 40.2232C130.619 39.8529 130.11 39.3716 129.75 38.7792C129.402 38.1868 129.228 37.4167 129.228 36.4688C129.228 35.521 129.421 34.7138 129.807 34.0474C130.207 33.3661 130.761 32.8478 131.469 32.4923C132.19 32.1221 133.034 31.937 134 31.937C134.966 31.937 135.823 32.1295 136.57 32.5145C137.33 32.8848 137.922 33.4476 138.347 34.2029C138.785 34.9434 139.004 35.8764 139.004 37.002V37.6684H136.492V37.002C136.492 36.4096 136.389 35.9357 136.183 35.5802C135.99 35.21 135.707 34.9434 135.333 34.7805C134.96 34.6028 134.515 34.5139 134 34.5139C133.227 34.5139 132.654 34.6842 132.281 35.0248C131.92 35.3507 131.74 35.8024 131.74 36.38C131.74 36.765 131.823 37.0909 131.991 37.3574C132.171 37.624 132.435 37.8462 132.783 38.0239C133.131 38.2016 133.575 38.3571 134.116 38.4904L134.56 38.6015C135.526 38.8384 136.364 39.142 137.072 39.5123C137.793 39.8825 138.354 40.3713 138.753 40.9785C139.152 41.5857 139.352 42.3632 139.352 43.3111C139.352 44.2589 139.139 45.0957 138.714 45.8214C138.302 46.5323 137.71 47.0951 136.937 47.5097C136.177 47.9096 135.275 48.1095 134.232 48.1095Z" fill="#272A33"/>
<path d="M120.937 48.0272V34.953H117.005V32.248H127.414V34.953H123.482V48.0272H120.937Z" fill="#272A33"/>
<path d="M106.047 48.0272V32.248H111.791C112.622 32.248 113.346 32.4208 113.963 32.7664C114.58 33.1121 115.059 33.6005 115.399 34.2317C115.739 34.8628 115.909 35.6067 115.909 36.4633V36.7338C115.909 37.6805 115.72 38.447 115.342 39.0331C114.964 39.6191 114.498 40.0474 113.944 40.3179V40.7237C114.448 40.7537 114.839 40.9641 115.116 41.3548C115.393 41.7305 115.531 42.234 115.531 42.8651V48.0272H113.038V43.2934C113.038 42.9328 112.956 42.6397 112.792 42.4143C112.641 42.1889 112.383 42.0762 112.017 42.0762H108.541V48.0272H106.047ZM108.541 39.3712H111.526C112.118 39.3712 112.578 39.1833 112.905 38.8076C113.245 38.4169 113.415 37.906 113.415 37.2748V37.0494C113.415 36.4182 113.252 35.9148 112.924 35.5391C112.597 35.1484 112.131 34.953 111.526 34.953H108.541V39.3712Z" fill="#272A33"/>
<path d="M91.7297 48.0272L95.2698 32.248H99.6949L103.235 48.0272H100.618L99.8873 44.5558H95.0774L94.3463 48.0272H91.7297ZM95.6738 41.8057H99.2909L97.6555 34.119H97.3092L95.6738 41.8057Z" fill="#272A33"/>
<path d="M82.4524 48.0272V32.248H87.9996C88.8471 32.248 89.5918 32.4509 90.2339 32.8566C90.8888 33.2473 91.396 33.8034 91.7555 34.5247C92.1279 35.246 92.3141 36.1026 92.3141 37.0945V37.41C92.3141 38.3869 92.1215 39.2434 91.7363 39.9798C91.3639 40.7011 90.8502 41.2647 90.1954 41.6704C89.5533 42.0612 88.8214 42.2565 87.9996 42.2565H84.9949V48.0272H82.4524ZM84.9949 39.5515H87.7492C88.3527 39.5515 88.8407 39.3561 89.213 38.9654C89.5854 38.5747 89.7716 38.0412 89.7716 37.365V37.1395C89.7716 36.4633 89.5854 35.9298 89.213 35.5391C88.8407 35.1484 88.3527 34.953 87.7492 34.953H84.9949V39.5515Z" fill="#272A33"/>
<path d="M39.4902 26.5098H5.50977V43.041H39.4902V48.5508H0V21H39.4902V26.5098Z" fill="#222222"/>
<path d="M49.5917 59.5712H11.0204V54.0614H44.0819V37.5302H11.0204V32.0204H49.5917V59.5712Z" fill="#EE753E"/>
<path d="M79.4805 35.4438H63.1172V38.3657H79.4805V48.3002H59.6104V44.7944H75.9737V41.8725H59.6104V31.937H79.4805V35.4438Z" fill="#272A33"/>
</svg>
